<mxfile host="Electron" modified="2023-12-31T12:35:10.978Z" agent="Mozilla/5.0 (Windows NT 10.0; Win64; x64) AppleWebKit/537.36 (KHTML, like Gecko) draw.io/22.1.16 Chrome/120.0.6099.109 Electron/28.1.0 Safari/537.36" etag="xMprsVtUfKwgqaGzZS4S" version="22.1.16" type="device">
  <diagram name="Page-1" id="2cc2dc42-3aac-f2a9-1cec-7a8b7cbee084">
    <mxGraphModel dx="1167" dy="1618" grid="1" gridSize="10" guides="1" tooltips="1" connect="1" arrows="1" fold="1" page="1" pageScale="1" pageWidth="1100" pageHeight="850" background="none" math="0" shadow="0">
      <root>
        <mxCell id="0" />
        <mxCell id="1" parent="0" />
        <mxCell id="AsocRW2U9enTBRK1ayEM-1" value="" style="strokeWidth=1;shadow=0;dashed=0;align=center;html=1;shape=mxgraph.mockup.containers.browserWindow;rSize=0;strokeColor=#666666;strokeColor2=#008cff;strokeColor3=#c4c4c4;mainText=,;recursiveResize=0;" vertex="1" parent="1">
          <mxGeometry x="20" y="40" width="1100" height="1290" as="geometry" />
        </mxCell>
        <mxCell id="AsocRW2U9enTBRK1ayEM-2" value="Page 1" style="strokeWidth=1;shadow=0;dashed=0;align=center;html=1;shape=mxgraph.mockup.containers.anchor;fontSize=17;fontColor=#666666;align=left;whiteSpace=wrap;" vertex="1" parent="AsocRW2U9enTBRK1ayEM-1">
          <mxGeometry x="60" y="12" width="110" height="26" as="geometry" />
        </mxCell>
        <mxCell id="AsocRW2U9enTBRK1ayEM-3" value="https://www.draw.io" style="strokeWidth=1;shadow=0;dashed=0;align=center;html=1;shape=mxgraph.mockup.containers.anchor;rSize=0;fontSize=17;fontColor=#666666;align=left;" vertex="1" parent="AsocRW2U9enTBRK1ayEM-1">
          <mxGeometry x="130" y="60" width="250" height="26" as="geometry" />
        </mxCell>
        <mxCell id="AsocRW2U9enTBRK1ayEM-9" value="" style="rounded=0;whiteSpace=wrap;html=1;" vertex="1" parent="AsocRW2U9enTBRK1ayEM-1">
          <mxGeometry y="110" width="1100" height="80" as="geometry" />
        </mxCell>
        <mxCell id="AsocRW2U9enTBRK1ayEM-11" value="SIGNUP" style="strokeWidth=1;shadow=0;dashed=0;align=center;html=1;shape=mxgraph.mockup.buttons.button;strokeColor=#666666;fontColor=#ffffff;mainText=;buttonStyle=round;fontSize=17;fontStyle=1;fillColor=#008cff;whiteSpace=wrap;" vertex="1" parent="AsocRW2U9enTBRK1ayEM-1">
          <mxGeometry x="980" y="115" width="110" height="70" as="geometry" />
        </mxCell>
        <mxCell id="AsocRW2U9enTBRK1ayEM-13" value="HOME" style="strokeWidth=1;shadow=0;dashed=0;align=center;html=1;shape=mxgraph.mockup.buttons.button;strokeColor=#666666;fontColor=#ffffff;mainText=;buttonStyle=round;fontSize=17;fontStyle=1;fillColor=#008cff;whiteSpace=wrap;" vertex="1" parent="AsocRW2U9enTBRK1ayEM-1">
          <mxGeometry x="730" y="115" width="110" height="70" as="geometry" />
        </mxCell>
        <mxCell id="AsocRW2U9enTBRK1ayEM-12" value="CONTACT" style="strokeWidth=1;shadow=0;dashed=0;align=center;html=1;shape=mxgraph.mockup.buttons.button;strokeColor=#666666;fontColor=#ffffff;mainText=;buttonStyle=round;fontSize=17;fontStyle=1;fillColor=#008cff;whiteSpace=wrap;" vertex="1" parent="AsocRW2U9enTBRK1ayEM-1">
          <mxGeometry x="860" y="115" width="110" height="70" as="geometry" />
        </mxCell>
        <mxCell id="AsocRW2U9enTBRK1ayEM-14" value="" style="verticalLabelPosition=bottom;shadow=0;dashed=0;align=center;html=1;verticalAlign=top;strokeWidth=1;shape=mxgraph.mockup.graphics.simpleIcon;strokeColor=#999999;" vertex="1" parent="AsocRW2U9enTBRK1ayEM-1">
          <mxGeometry x="10" y="125" width="290" height="50" as="geometry" />
        </mxCell>
        <mxCell id="AsocRW2U9enTBRK1ayEM-15" value="&lt;b&gt;&lt;font style=&quot;font-size: 18px;&quot;&gt;LOGO&lt;/font&gt;&lt;/b&gt;" style="text;html=1;strokeColor=none;fillColor=none;align=center;verticalAlign=middle;whiteSpace=wrap;rounded=0;" vertex="1" parent="AsocRW2U9enTBRK1ayEM-1">
          <mxGeometry x="125" y="135" width="60" height="30" as="geometry" />
        </mxCell>
        <mxCell id="AsocRW2U9enTBRK1ayEM-42" value="" style="rounded=0;whiteSpace=wrap;html=1;" vertex="1" parent="AsocRW2U9enTBRK1ayEM-1">
          <mxGeometry x="135" y="910" width="830" height="150" as="geometry" />
        </mxCell>
        <mxCell id="AsocRW2U9enTBRK1ayEM-43" value="&lt;font style=&quot;font-size: 23px;&quot;&gt;MAP&lt;/font&gt;" style="text;html=1;strokeColor=none;fillColor=none;align=center;verticalAlign=middle;whiteSpace=wrap;rounded=0;" vertex="1" parent="AsocRW2U9enTBRK1ayEM-1">
          <mxGeometry x="430" y="930" width="240" height="110" as="geometry" />
        </mxCell>
        <mxCell id="AsocRW2U9enTBRK1ayEM-44" value="" style="rounded=0;whiteSpace=wrap;html=1;" vertex="1" parent="AsocRW2U9enTBRK1ayEM-1">
          <mxGeometry y="1140" width="1100" height="150" as="geometry" />
        </mxCell>
        <mxCell id="AsocRW2U9enTBRK1ayEM-46" value="&lt;font style=&quot;font-size: 23px;&quot;&gt;INSTITUTIONAL INFORMATION&lt;/font&gt;" style="rounded=0;whiteSpace=wrap;html=1;" vertex="1" parent="AsocRW2U9enTBRK1ayEM-1">
          <mxGeometry x="305" y="1160" width="480" height="50" as="geometry" />
        </mxCell>
        <mxCell id="AsocRW2U9enTBRK1ayEM-47" value="&lt;font style=&quot;font-size: 17px;&quot;&gt;BANK&#39;S SOCIAL MEDIA LINKS&lt;/font&gt;" style="rounded=0;whiteSpace=wrap;html=1;" vertex="1" parent="AsocRW2U9enTBRK1ayEM-1">
          <mxGeometry x="270" y="1220" width="560" height="60" as="geometry" />
        </mxCell>
        <mxCell id="AsocRW2U9enTBRK1ayEM-48" value="" style="rounded=0;whiteSpace=wrap;html=1;" vertex="1" parent="AsocRW2U9enTBRK1ayEM-1">
          <mxGeometry y="190" width="1100" height="610" as="geometry" />
        </mxCell>
        <mxCell id="AsocRW2U9enTBRK1ayEM-49" value="" style="rounded=0;whiteSpace=wrap;html=1;" vertex="1" parent="AsocRW2U9enTBRK1ayEM-1">
          <mxGeometry x="50" y="290" width="510" height="430" as="geometry" />
        </mxCell>
        <mxCell id="AsocRW2U9enTBRK1ayEM-50" value="" style="strokeWidth=1;shadow=0;dashed=0;align=center;html=1;shape=mxgraph.mockup.forms.pwField;strokeColor=#999999;mainText=;align=left;fontColor=#666666;fontSize=17;spacingLeft=3;" vertex="1" parent="AsocRW2U9enTBRK1ayEM-1">
          <mxGeometry x="100" y="370" width="410" height="40" as="geometry" />
        </mxCell>
        <mxCell id="AsocRW2U9enTBRK1ayEM-52" value="" style="strokeWidth=1;shadow=0;dashed=0;align=center;html=1;shape=mxgraph.mockup.forms.pwField;strokeColor=#999999;mainText=;align=left;fontColor=#666666;fontSize=17;spacingLeft=3;" vertex="1" parent="AsocRW2U9enTBRK1ayEM-1">
          <mxGeometry x="100" y="510" width="410" height="40" as="geometry" />
        </mxCell>
        <mxCell id="AsocRW2U9enTBRK1ayEM-51" value="" style="strokeWidth=1;shadow=0;dashed=0;align=center;html=1;shape=mxgraph.mockup.forms.pwField;strokeColor=#999999;mainText=;align=left;fontColor=#666666;fontSize=17;spacingLeft=3;" vertex="1" parent="AsocRW2U9enTBRK1ayEM-1">
          <mxGeometry x="100" y="440" width="410" height="40" as="geometry" />
        </mxCell>
        <mxCell id="AsocRW2U9enTBRK1ayEM-53" value="Button" style="labelPosition=center;verticalLabelPosition=middle;align=center;html=1;shape=mxgraph.basic.button;dx=10;whiteSpace=wrap;" vertex="1" parent="AsocRW2U9enTBRK1ayEM-1">
          <mxGeometry x="190" y="580" width="230" height="60" as="geometry" />
        </mxCell>
        <mxCell id="AsocRW2U9enTBRK1ayEM-54" value="" style="ellipse;whiteSpace=wrap;html=1;aspect=fixed;" vertex="1" parent="AsocRW2U9enTBRK1ayEM-1">
          <mxGeometry x="650" y="290" width="385" height="385" as="geometry" />
        </mxCell>
        <mxCell id="AsocRW2U9enTBRK1ayEM-55" value="REQUEST YOUR BANK ACCOUNT - FORM" style="text;html=1;strokeColor=none;fillColor=none;align=center;verticalAlign=middle;whiteSpace=wrap;rounded=0;" vertex="1" parent="AsocRW2U9enTBRK1ayEM-1">
          <mxGeometry x="105" y="300" width="400" height="60" as="geometry" />
        </mxCell>
        <mxCell id="AsocRW2U9enTBRK1ayEM-57" value="" style="verticalLabelPosition=bottom;shadow=0;dashed=0;align=center;html=1;verticalAlign=top;strokeWidth=1;shape=mxgraph.mockup.graphics.simpleIcon;strokeColor=#999999;" vertex="1" parent="AsocRW2U9enTBRK1ayEM-1">
          <mxGeometry x="710" y="360" width="270" height="250" as="geometry" />
        </mxCell>
        <mxCell id="AsocRW2U9enTBRK1ayEM-58" value="&lt;b&gt;&lt;font style=&quot;font-size: 20px;&quot;&gt;LOGO 2&lt;/font&gt;&lt;/b&gt;" style="text;html=1;strokeColor=none;fillColor=none;align=center;verticalAlign=middle;whiteSpace=wrap;rounded=0;" vertex="1" parent="AsocRW2U9enTBRK1ayEM-1">
          <mxGeometry x="796.25" y="460" width="97.5" height="50" as="geometry" />
        </mxCell>
        <mxCell id="AsocRW2U9enTBRK1ayEM-4" value="&lt;font style=&quot;font-size: 28px;&quot;&gt;HOME PAGE&lt;/font&gt;" style="text;html=1;strokeColor=none;fillColor=none;align=center;verticalAlign=middle;whiteSpace=wrap;rounded=0;" vertex="1" parent="1">
          <mxGeometry x="30" y="-20" width="1100" height="60" as="geometry" />
        </mxCell>
      </root>
    </mxGraphModel>
  </diagram>
</mxfile>
